<svg width="20" height="20" viewBox="0 0 20 20" fill="none" xmlns="http://www.w3.org/2000/svg">
<path d="M16.7212 13.2163C16.4044 12.2564 16.2428 11.2521 16.2425 10.2413V7.74378C16.2649 6.16137 15.7002 4.62676 14.6575 3.43628C13.6177 2.24442 12.1747 1.478 10.605 1.28378C9.7375 1.19378 8.855 1.28378 8.0175 1.56753C7.18 1.83628 6.4175 2.28503 5.775 2.88378C5.12864 3.4665 4.61388 4.18027 4.265 4.97753C3.91474 5.77442 3.73139 6.63459 3.72625 7.50503V10.255C3.72463 11.2617 3.56303 12.2616 3.2475 13.2175L2.5 15.4288L3.09875 16.2513H7.48C7.48 16.9088 7.74875 17.5513 8.2125 18.0163C8.675 18.4788 9.31875 18.7488 9.9775 18.7488C10.6362 18.7488 11.2775 18.48 11.7412 18.0163C12.205 17.5525 12.475 16.9088 12.475 16.2513H16.8562L17.4538 15.4288L16.7212 13.2163ZM10.8588 17.15C10.7436 17.2672 10.6065 17.3605 10.4553 17.4246C10.3041 17.4887 10.1417 17.5224 9.9775 17.5238C9.81296 17.5224 9.6503 17.4886 9.49886 17.4243C9.34742 17.3599 9.21018 17.2663 9.095 17.1488C8.97763 17.0338 8.8841 16.8967 8.81975 16.7455C8.75541 16.5943 8.72151 16.4319 8.72 16.2675H11.2188C11.2239 16.4315 11.1946 16.5948 11.1328 16.7468C11.071 16.8988 10.9768 17.0361 10.8588 17.15ZM3.965 15.0125L4.42875 13.62C4.79107 12.5354 4.97801 11.3998 4.9825 10.2563V7.50503C4.9825 6.80128 5.1325 6.11378 5.41625 5.48503C5.7 4.84253 6.10375 4.27378 6.6275 3.81003C7.15125 3.33253 7.765 2.97253 8.4225 2.76378C9.095 2.53878 9.7975 2.46378 10.485 2.53878C11.7449 2.7048 12.9 3.32752 13.7312 4.28878C14.5628 5.25134 15.0097 6.487 14.9862 7.75878V10.2713C14.9862 11.4075 15.1663 12.5438 15.54 13.635L16.0038 15.0263H3.96625V15.0113L3.965 15.0125Z" fill="white"/>
</svg>
